# xmcd
#
# Track frame offsets:
#  150
#  21529
#  39757
#  58031
#  73067
#  88817
#  105427
#  122761
#  139439
#  161662
#  176141
#  192563
#  211911
#  228125
#  242648
#  257129
#  269217
#  285438
#  300357
#  316915
#  336981
#
# Disc length: 4655 seconds
#
# Revision: 0
# Processed by: cddbd v1.5.2PL0 Copyright (c) Steve Scherf et al.
# Submitted via: Collectorz.com_Music_Collector 6.11
#
DISCID=3b122d15
DTITLE=Eleventh Dream Day - After This Time Is Gone: An Eleventh Dream Day Sampler
DYEAR=1900
DGENRE=
TTITLE0=Between Here And There
TTITLE1=Testify
TTITLE2=Bagdad's Last Ride
TTITLE3=Road That Never Winds
TTITLE4=Bomb The Mars Hotel
TTITLE5=Axle
TTITLE6=Teenage Pin Queen
TTITLE7=Rose Of Jericho
TTITLE8=It's Not My World
TTITLE9=Dream Of Sleeping Sheep
TTITLE10=You Know What It Is
TTITLE11=Frozen Mile
TTITLE12=I Could Be Lost
TTITLE13=Strung Up In/Or Out
TTITLE14=North Of Wasteland
TTITLE15=Trouble
TTITLE16=After This Time Is Gone
TTITLE17=Bend Bridge
TTITLE18=Makin' Like A Rug
TTITLE19=Motherland
TTITLE20=That's The Point
EXTD=
EXTT0=
EXTT1=
EXTT2=
EXTT3=
EXTT4=
EXTT5=
EXTT6=
EXTT7=
EXTT8=
EXTT9=
EXTT10=
EXTT11=
EXTT12=
EXTT13=
EXTT14=
EXTT15=
EXTT16=
EXTT17=
EXTT18=
EXTT19=
EXTT20=
PLAYORDER=
